<svg width="12" height="12" viewBox="0 0 12 12" fill="none" xmlns="http://www.w3.org/2000/svg">
<path d="M5.65874 0.471986C5.68646 0.402865 5.73366 0.343735 5.79434 0.302119C5.85502 0.260503 5.92644 0.238281 5.99951 0.238281C6.07258 0.238281 6.144 0.260503 6.20468 0.302119C6.26537 0.343735 6.31257 0.402865 6.34029 0.471986L7.73286 3.89625C7.75893 3.96032 7.80178 4.0158 7.8567 4.05659C7.91162 4.09737 7.97648 4.12187 8.04415 4.12739L11.6603 4.42352C11.9873 4.45032 12.1196 4.86772 11.8706 5.08546L9.11561 7.49873C9.06414 7.54375 9.02578 7.60238 9.00474 7.6682C8.98371 7.73403 8.9808 7.80451 8.99634 7.87191L9.83844 11.4797C9.85537 11.5521 9.85093 11.628 9.82569 11.6978C9.80046 11.7676 9.75555 11.8282 9.69665 11.872C9.63775 11.9157 9.56749 11.9406 9.49475 11.9435C9.42201 11.9465 9.35005 11.9273 9.28796 11.8884L6.19153 9.95554C6.13368 9.9195 6.06725 9.90044 5.99951 9.90044C5.93177 9.90044 5.86534 9.9195 5.8075 9.95554L2.71106 11.8891C2.64897 11.928 2.57702 11.9471 2.50428 11.9442C2.43154 11.9413 2.36128 11.9164 2.30238 11.8726C2.24347 11.8289 2.19857 11.7683 2.17333 11.6985C2.14809 11.6287 2.14366 11.5528 2.16058 11.4804L3.00268 7.87191C3.0183 7.80451 3.01543 7.73401 2.99439 7.66817C2.97335 7.60233 2.93495 7.5437 2.88341 7.49873L0.128403 5.08546C0.0732328 5.03697 0.033321 4.97287 0.0136867 4.90124C-0.00594749 4.82961 -0.00442748 4.75365 0.0180556 4.6829C0.0405387 4.61216 0.082981 4.54979 0.140045 4.50363C0.197109 4.45748 0.266247 4.42961 0.338764 4.42352L3.95488 4.12739C4.02254 4.12187 4.0874 4.09737 4.14232 4.05659C4.19724 4.0158 4.2401 3.96032 4.26616 3.89625L5.65874 0.471986Z" fill="#EE9972"/>
</svg>
